<?xml version="1.0" encoding="iso-8859-1"?>
<!-- Generator: Adobe Illustrator 19.0.0, SVG Export Plug-In . SVG Version: 6.00 Build 0)  -->
<svg version="1.1" id="Layer_1" xmlns="http://www.w3.org/2000/svg" xmlns:xlink="http://www.w3.org/1999/xlink" x="0px" y="0px"
	 viewBox="0 0 512.001 512.001" style="enable-background:new 0 0 512.001 512.001;fill:#64D6C4" xml:space="preserve">
<g>
	<g>
		<g>
			<path d="M257.048,349.706c18.025,0,32.69-14.664,32.69-32.688c0-18.025-14.664-32.69-32.69-32.69
				c-18.024,0-32.688,14.664-32.688,32.69C224.361,335.042,239.025,349.706,257.048,349.706z M257.048,299.329
				c9.754,0,17.689,7.935,17.689,17.689c0,9.753-7.935,17.687-17.689,17.687c-9.753,0-17.687-7.935-17.687-17.687
				C239.361,307.265,247.295,299.329,257.048,299.329z"/>
			<path d="M402.059,108.348c29.872,0,54.175-24.302,54.175-54.173C456.235,24.302,431.931,0,402.059,0
				c-29.871,0-54.172,24.302-54.172,54.174C347.887,84.045,372.189,108.348,402.059,108.348z M402.059,15.001
				c21.601,0,39.174,17.573,39.174,39.173c0,21.6-17.573,39.172-39.174,39.172c-21.599,0-39.171-17.572-39.171-39.172
				C362.888,32.574,380.46,15.001,402.059,15.001z"/>
			<path d="M482.323,191.729c-4.143,0-7.5,3.357-7.5,7.5v102.63c0,2.671-2.173,4.844-4.843,4.844h-18.3V174.311
				c0-4.143-3.357-7.5-7.5-7.5s-7.5,3.357-7.5,7.5v317.845c0,2.67-2.173,4.843-4.843,4.843h-17.431
				c-2.671,0-4.844-2.173-4.844-4.843v-119.32c0-4.142-3.357-7.5-7.5-7.5c-4.143,0-7.5,3.358-7.5,7.5v119.32
				c0,2.67-2.173,4.843-4.843,4.843h-17.431c-2.67,0-4.843-2.173-4.843-4.843V174.311c0-4.143-3.357-7.5-7.5-7.5
				c-4.143,0-7.5,3.357-7.5,7.5v132.393h-18.3c-2.669,0-4.842-2.172-4.843-4.838V174.288c0-24.633,20.04-44.673,44.673-44.673
				h56.178c24.633,0,44.673,20.04,44.673,44.673c0,4.143,3.357,7.5,7.5,7.5c4.143,0,7.5-3.357,7.5-7.5
				c0-32.904-26.77-59.674-59.674-59.674H373.97c-32.904,0-59.674,26.77-59.674,59.674v127.581
				c0.005,10.939,8.907,19.836,19.844,19.836h18.3v170.451c0,10.942,8.902,19.844,19.844,19.844h17.431
				c4.665,0,8.952-1.629,12.344-4.334c3.392,2.705,7.679,4.334,12.345,4.334h17.431c10.942,0,19.844-8.901,19.844-19.844V321.704
				h18.3c10.942,0,19.844-8.903,19.844-19.845v-102.63C489.824,195.086,486.466,191.729,482.323,191.729z"/>
			<path d="M100.153,154.195c29.872,0,54.175-24.302,54.175-54.173c0-29.872-24.303-54.174-54.175-54.174
				c-29.871,0-54.172,24.302-54.172,54.174C45.982,129.893,70.282,154.195,100.153,154.195z M100.153,60.849
				c21.601,0,39.174,17.573,39.174,39.173c0,21.6-17.573,39.172-39.174,39.172c-21.599,0-39.171-17.572-39.171-39.172
				C60.983,78.422,78.555,60.849,100.153,60.849z"/>
			<path d="M124.82,161.237H75.491c-29.397,0-53.313,23.916-53.313,53.313v112.025c0.003,10.108,8.229,18.331,18.339,18.331h0.227
				l-5.192,47.254c-0.232,2.119,0.447,4.237,1.869,5.824c1.423,1.588,3.454,2.495,5.586,2.495h12.665v93.183
				c0,10.112,8.228,18.339,18.339,18.339h15.306c4.057,0,7.798-1.34,10.839-3.579c3.041,2.239,6.781,3.579,10.84,3.579h15.306
				c10.112,0,18.339-8.227,18.339-18.339v-41.415c0-4.143-3.357-7.5-7.5-7.5s-7.5,3.357-7.5,7.5v41.415
				c0,1.841-1.497,3.338-3.338,3.338h-15.306c-1.841,0-3.339-1.497-3.339-3.338v-80.111c0-4.143-3.357-7.5-7.5-7.5
				s-7.5,3.357-7.5,7.5v80.111c0,1.841-1.497,3.338-3.338,3.338H74.01c-1.841,0-3.338-1.497-3.338-3.338v-93.183h58.966v27.76
				c0,4.142,3.357,7.5,7.5,7.5c4.143,0,7.5-3.358,7.5-7.5v-27.76h12.664c2.132,0,4.163-0.907,5.585-2.495
				c1.423-1.587,2.102-3.705,1.87-5.824l-5.192-47.254h0.227c10.112,0,18.339-8.225,18.339-18.338V214.549
				C178.131,185.153,154.215,161.237,124.82,161.237z M163.131,326.567L163.131,326.567c-0.001,1.84-1.498,3.337-3.339,3.337h-1.875
				l-13.731-124.956c-0.453-4.116-4.159-7.076-8.275-6.636c-4.117,0.452-7.088,4.157-6.636,8.274l19.658,178.891h-7.059h-4.735
				H63.172h-6.16h-5.635l19.658-178.891c0.452-4.117-2.519-7.822-6.636-8.274c-4.125-0.441-7.823,2.52-8.275,6.636L42.393,329.904
				h-1.875c-1.84,0-3.337-1.496-3.338-3.333V214.549c0-21.125,17.187-38.312,38.312-38.312h49.328
				c21.124,0,38.311,17.187,38.311,38.312V326.567z"/>
			<path d="M313.891,324.76c-5.367,0.169-10.349,2.418-14.023,6.332l-27.972,29.788h-28.955l-27.973-29.789
				c-7.589-8.078-20.335-8.479-28.419-0.892c-8.078,7.588-8.48,20.335-0.894,28.417l32.431,34.536V492.4
				c0,10.808,8.793,19.6,19.601,19.6h39.461c10.808,0,19.599-8.792,19.599-19.6v-41.159c0-4.143-3.357-7.5-7.5-7.5
				c-4.143,0-7.5,3.357-7.5,7.5V492.4c0,2.536-2.063,4.599-4.598,4.599h-12.584v-62.558c0-4.143-3.357-7.5-7.5-7.5
				c-4.142,0-7.5,3.357-7.5,7.5v62.558h-11.877c-2.536,0-4.6-2.063-4.6-4.599V390.182c0-1.907-0.727-3.743-2.032-5.134
				l-34.462-36.699c-1.926-2.052-1.824-5.288,0.226-7.214c2.052-1.926,5.288-1.823,7.214,0.227l30.193,32.154
				c1.418,1.51,3.396,2.366,5.468,2.366h35.447c2.071,0,4.05-0.857,5.468-2.366l30.193-32.154c1.927-2.052,5.163-2.152,7.212-0.228
				c2.052,1.927,2.153,5.163,0.228,7.214l-34.464,36.699c-1.307,1.391-2.033,3.227-2.033,5.134v36.057c0,4.142,3.357,7.5,7.5,7.5
				s7.5-3.358,7.5-7.5v-33.087l32.432-34.535c7.587-8.081,7.185-20.828-0.895-28.418
				C324.371,326.523,319.264,324.602,313.891,324.76z"/>
		</g>
	</g>
</g>

</svg>
