<svg height="512pt" viewBox="-76 0 512 512" width="512pt" xmlns="http://www.w3.org/2000/svg" style="fill:#64D6C4"><path d="m222.46875 186.207031c-16.566406 0-30.046875 13.46875-30.046875 30.019531v135.171876c0 16.570312 13.476563 30.050781 30.046875 30.050781 16.566406 0 30.042969-13.480469 30.042969-30.050781v-135.171876c0-16.550781-13.476563-30.019531-30.042969-30.019531zm9.902344 165.191407c0 5.464843-4.445313 9.90625-9.902344 9.90625-5.460938 0-9.902344-4.441407-9.902344-9.90625v-135.171876c0-5.445312 4.441406-9.878906 9.902344-9.878906 5.457031 0 9.902344 4.433594 9.902344 9.878906zm0 0"/><path d="m137.835938 186.207031c-16.566407 0-30.042969 13.46875-30.042969 30.019531v135.171876c0 16.570312 13.476562 30.050781 30.042969 30.050781 16.582031 0 30.074218-13.480469 30.074218-30.050781v-135.171876c0-16.550781-13.492187-30.019531-30.074218-30.019531zm9.929687 165.191407c0 5.464843-4.453125 9.90625-9.929687 9.90625-5.457032 0-9.902344-4.441407-9.902344-9.90625v-135.171876c0-5.445312 4.441406-9.878906 9.902344-9.878906 5.476562 0 9.929687 4.433594 9.929687 9.878906zm0 0"/><path d="m330.324219 448.226562-18.160157-46.984374c-1.5-3.882813-5.230468-6.441407-9.394531-6.441407h-1.132812v-186.652343c1.746093-.007813 3.515625-.089844 5.304687-.253907 35.148438-3.25 49.949219-30.894531 48.828125-55.207031-1.1875-25.75-19.6875-51.777344-53.070312-56.164062v-34.101563h25.449219c17.222656 0 31.238281-14 31.238281-31.210937 0-17.210938-14.015625-31.210938-31.238281-31.210938h-295.992188c-17.222656 0-31.234375 14-31.234375 31.210938 0 17.210937 14.011719 31.210937 31.234375 31.210937h25.449219v34.113281c-33.40625 4.417969-51.902344 30.472656-53.074219 56.230469-1.101562 24.273437 13.707031 51.878906 48.820312 55.128906 1.792969.164063 3.566407.242188 5.320313.25v186.65625h-1.136719c-4.160156 0-7.894531 2.558594-9.394531 6.441407l-18.160156 46.984374c-16.703125 1.019532-29.980469 14.914063-29.980469 31.855469 0 17.597657 14.328125 31.917969 31.945312 31.917969h296.417969c17.613281 0 31.941407-14.320312 31.941407-31.917969 0-16.941406-13.277344-30.835937-29.980469-31.855469zm-309.261719-417.015624c0-6.101563 4.976562-11.070313 11.09375-11.070313h295.992188c6.117187 0 11.09375 4.96875 11.09375 11.070313 0 6.101562-4.976563 11.070312-11.09375 11.070312h-295.992188c-6.117188 0-11.09375-4.96875-11.09375-11.070312zm3.589844 122.46875c.824218-18.117188 14.640625-37.632813 43.019531-37.671876h67.039063c5.5625 0 10.070312-4.507812 10.070312-10.070312s-4.507812-10.070312-10.070312-10.070312h-56.964844v-33.445313h204.8125v33.445313h-56.949219c-5.558594 0-10.070313 4.507812-10.070313 10.070312s4.507813 10.070312 10.070313 10.070312h67.011719c28.371094 0 42.195312 19.496094 43.027344 37.605469.667968 14.421875-6.9375 32.039063-30.566407 34.222657-9.613281.894531-18.417969-1.746094-23.535156-7.058594-4.535156-4.703125-6.257813-11.5-5.125-20.207032.070313-.523437.082031-1.042968.070313-1.5625.089843-2.554687 1.492187-4.605468 4.199218-6.097656 3.714844-2.042968 8.667969-2.21875 11.523438-.410156.703125.441406 2.839844 1.796875 2.519531 6.96875-.339844 5.554688 3.882813 10.332031 9.433594 10.671875.210937.015625.421875.023437.628906.023437 5.277344 0 9.714844-4.113281 10.042969-9.453124.667968-10.839844-3.648438-20.035157-11.847656-25.226563-9.011719-5.710937-21.875-5.796875-32.011719-.21875-6.035157 3.320313-10.390625 8.175781-12.714844 13.933594h-157.214844c-6.039062-12.359375-19.457031-18.042969-31.0625-17.027344-14.480469 1.277344-24.59375 12.09375-24.59375 26.304687 0 5.5625 4.507813 10.070313 10.070313 10.070313s10.074218-4.507813 10.074218-10.070313c0-1.40625 0-5.691406 6.21875-6.238281 4.191407-.367187 10.882813 1.667969 12.148438 8.792969.007812.046875.023438.09375.035156.144531.984375 8.414063-.746094 15.007813-5.167968 19.597657-5.117188 5.316406-13.921876 7.960937-23.566407 7.066406-23.597656-2.183594-31.207031-19.765625-30.554687-34.160156zm54.160156 50.734374c5.542969-2.265624 10.46875-5.511718 14.476562-9.671874 4.8125-5.003907 10.039063-13.15625 10.933594-25.402344h151.855469c.90625 12.257812 6.140625 20.410156 10.964844 25.414062 4 4.152344 8.917969 7.394532 14.449219 9.65625v190.390625h-202.679688zm-14.375 210.53125h231.429688l12.839843 33.21875h-257.109375zm263.921875 76.914063h-296.414063c-6.507812 0-11.804687-5.285156-11.804687-11.777344 0-6.496093 5.296875-11.777343 11.804687-11.777343h296.414063c6.507813 0 11.804687 5.28125 11.804687 11.777343 0 6.492188-5.296874 11.777344-11.804687 11.777344zm0 0"/><path d="m180.054688 116.007812h.195312c5.5625 0 10.074219-4.507812 10.074219-10.070312 0-.027344-.007813-.054688-.007813-.085938 0-.027343.007813-.054687.007813-.082031 0-5.5625-4.511719-10.074219-10.074219-10.074219h-.195312c-5.5625 0-10.074219 4.511719-10.074219 10.074219 0 .027344.003906.054688.003906.082031 0 .03125-.003906.058594-.003906.085938 0 5.5625 4.511719 10.070312 10.074219 10.070312zm0 0"/></svg>
