<svg height="512" viewBox="0 0 60 61" width="512" xmlns="http://www.w3.org/2000/svg" style="fill:#64D6C4"><g id="028---Nuclear-Bomb"><path id="Shape" d="m32.1 14.783 1.509-4.192c.3924884-1.09402987.1200138-2.31627318-.7-3.14l-7.2-7.16c-.2389807-.23789233-.5817595-.33932471-.9117125-.26978666s-.6026412.30068094-.7252875.61478666l-6.593 16.842-16.843 6.591c-.31371669.1227725-.54453168.395252-.61404514.7248869-.06951346.3296348.03161861.6721154.26904514.9111131l7.162 7.2c.82370415.8185541 2.04450483 1.0908805 3.138.7l4.192-1.505c1.2 3.027 5.9 14.038 13.366 21.5 8.564 8.565 16.891 8.565 25.456 0 8.349-8.349 8.723-16.732 0-25.455-7.466-7.462-18.479-12.16-21.505-13.362zm-22.187 16.946c-.36302527.1316434-.76940471.0425046-1.044-.229l-6.085-6.124 15.221-5.957 3.073 3.074c.2510745.2599566.6228779.3642126.9725073.2726972.3496295-.0915155.6226744-.3645604.7141899-.7141899.0915154-.3496294-.0127406-.7214328-.2726972-.9725073l-3.072-3.073 5.956-15.222 6.124 6.083c.2740525.27389184.3652256.68144366.234 1.046l-5.4 15-1.007-1.007c-.3923789-.3789722-1.0160848-.3735524-1.4018186.0121814s-.3911536 1.0094397-.0121814 1.4018186l1.007 1.007zm42.278 20.462c-7.719 7.719-14.908 7.719-22.628 0-7.068-7.069-11.7-17.8-12.893-20.769 5.024-1.809 10.52-3.819 10.42-3.756.2683424-.0973138.4796862-.3086576.577-.577.064-.1-.111.318 3.754-10.42 10.041 4.042 26.816 13.66 26.579 24.452-.083 3.623-1.982 7.244-5.809 11.07z"/><path id="Shape" d="m37.86 46.064c-2.8622226-1.6662512-3.8330469-5.3364953-2.169-8.2.2776527-.4771938.1160564-1.0891112-.361-1.367l-4.322-2.514c-.4771938-.2776527-1.0891112-.1160564-1.367.361-1.7372641 2.9794089-2.2180638 6.5274876-1.3363699 9.8617912.8816939 3.3343035 3.0534611 6.1809608 6.0363699 7.9122088.4771938.2776527 1.0891112.1160564 1.367-.361l2.514-4.322c.1345254-.2296402.1719605-.5034326.1040167-.760756-.0679439-.2573234-.2356611-.4769473-.4660167-.610244zm-3.355 3.78c-4.3300849-3.0718864-5.8451307-8.800022-3.6-13.611l2.608 1.517c-1.4293654 3.363953-.3970468 7.2688998 2.508 9.487z"/><path id="Shape" d="m46.876 40.91c-.0192505 3.300032-2.6999119 5.9650561-6 5.965-.2702047-.0078393-.532073.0940466-.7259292.2824394-.1938561.1883927-.3031845.4472422-.3030708.7175606v5c-.0001301.270676.1094715.5298431.3037671.7182967.1942956.1884535.456687.2900943.7272329.2817033 7.1609497-.0109058 12.970275-5.8001311 13.006-12.961 0-.5522847-.4477153-1-1-1h-5.008c-.5507264-.0000044-.9977971.445278-1 .996zm4.958 1c-.5076049 5.2794943-4.7033989 9.4488178-9.986 9.923v-3.017c3.6237837-.4465828 6.4876065-3.2861464 6.965-6.906z"/><path id="Shape" d="m42.386 38.285c-1.0905789-.6355276-2.4623117-.520434-3.4317421.287936-.9694305.80837-1.329172 2.137085-.8999859 3.324122.4291862 1.187037 1.5554858 1.9784575 2.817728 1.979942 1.3562219.001595 2.544844-.9069011 2.8992726-2.2159927s-.2134951-2.6931618-1.3852726-3.3760073zm-2.011 3.457c-.349705-.2032386-.5425421-.5971272-.4885871-.9979867.0539551-.4008596.3440761-.7297428.7350732-.8332841.3909971-.1035412.8058653.0386513 1.0511423.3602702.2452771.3216188.2726569.7593227.0693716 1.1090006-.2775473.4774184-.8895445.6394835-1.367.362z"/><path id="Shape" d="m34.408 29.594c-.2303526.1319423-.3987899.3500623-.4681936.6062931-.0694036.2562308-.0340775.529543.0981936.7597069l2.494 4.34c.2750938.4787582.8861574.6439468 1.365.369 2.873806-1.6442659 6.5363481-.649866 8.184 2.222.1778851.3122488.5096361.5050385.869.505.379 0 .19.044 4.835-2.618.2300816-.1319393.3983241-.3498775.4677133-.6058671.0693891-.2559896.0342404-.5290595-.0977133-.7591329-3.5749147-6.225024-11.5145439-8.3809418-17.747-4.819zm12.86 6.471c-2.2002111-2.9161925-6.0952579-3.9734665-9.468-2.57l-1.506-2.623c4.8284327-2.2026944 10.5410478-.6499056 13.59 3.694z"/></g></svg>
