<svg id="Capa_1" enable-background="new 0 0 512 512" height="512" viewBox="0 0 512 512" width="512" xmlns="http://www.w3.org/2000/svg" style="fill:#64D6C4"><path d="m196 165c0 25.234 26.355 45 60 45s60-19.766 60-45-26.355-45-60-45-60 19.766-60 45zm60-15c18.313 0 30 8.884 30 15s-11.687 15-30 15-30-8.884-30-15 11.687-15 30-15z"/><path d="m181 90h30v30h-30z"/><path d="m301 90h30v30h-30z"/><path d="m241 302h30v30h-30z"/><path d="m241 362h30v30h-30z"/><path d="m434.516 343.243c10.204-10.761 16.484-25.278 16.484-41.243 0-33.084-26.916-60-60-60-5.019 0-9.894.628-14.556 1.795-5.778-7.298-12.008-14.053-18.651-20.216 17.864-20.502 29.653-46.428 32.525-74.949 34.531-6.702 60.682-37.169 60.682-73.63 0-41.355-33.645-75-75-75-19.001 0-36.772 7.052-50.478 19.717-21.165-12.939-44.946-19.717-69.522-19.717s-48.357 6.778-69.522 19.717c-13.706-12.665-31.478-19.717-50.478-19.717-41.355 0-75 33.645-75 75 0 36.461 26.151 66.928 60.683 73.629 2.871 28.521 14.661 54.448 32.525 74.95-6.643 6.163-12.872 12.918-18.651 20.216-4.663-1.167-9.537-1.795-14.557-1.795-33.084 0-60 26.916-60 60 0 15.965 6.28 30.482 16.484 41.243-27.694 15.363-46.484 44.905-46.484 78.757 0 49.626 40.374 90 90 90h270c49.626 0 90-40.374 90-90 0-33.852-18.79-63.394-46.484-78.757zm-13.516-41.243c0 16.542-13.458 30-30 30s-30-13.458-30-30 13.458-30 30-30 30 13.458 30 30zm-285-182c-24.813 0-45-20.187-45-45s20.187-45 45-45c29.259 0 39.928 25.458 45.053 30.541 7.093-4.132 31.534-30.541 74.947-30.541 43.403 0 68.199 26.61 74.946 30.541 5.496-5.451 15.675-30.541 45.054-30.541 24.813 0 45 20.187 45 45s-20.187 45-45 45h-15v15c0 57.897-47.103 105-105 105s-105-47.103-105-105v-15zm40.372 123.949c22.339 16.37 49.873 26.051 79.628 26.051 29.756 0 57.289-9.681 79.628-26.051 4.968 4.456 9.671 9.326 14.101 14.562-11.522 10.94-18.729 26.384-18.729 43.489 0 15.965 6.28 30.482 16.484 41.243-27.694 15.363-46.484 44.905-46.484 78.757 0 23.031 8.7 44.065 22.98 60h-135.96c14.28-15.935 22.98-36.969 22.98-60 0-33.852-18.79-63.394-46.484-78.757 10.204-10.761 16.484-25.278 16.484-41.243 0-17.105-7.207-32.549-18.729-43.489 4.43-5.237 9.134-10.106 14.101-14.562zm-85.372 58.051c0-16.542 13.458-30 30-30s30 13.458 30 30-13.458 30-30 30-30-13.458-30-30zm-30 120c0-33.084 26.916-60 60-60s60 26.916 60 60-26.916 60-60 60-60-26.916-60-60zm330 60c-33.084 0-60-26.916-60-60s26.916-60 60-60 60 26.916 60 60-26.916 60-60 60z"/></svg>
