<?xml version="1.0" encoding="iso-8859-1"?>
<!-- Generator: Adobe Illustrator 18.0.0, SVG Export Plug-In . SVG Version: 6.00 Build 0)  -->
<!DOCTYPE svg PUBLIC "-//W3C//DTD SVG 1.1//EN" "http://www.w3.org/Graphics/SVG/1.1/DTD/svg11.dtd">
<svg version="1.1" id="Capa_1" xmlns="http://www.w3.org/2000/svg" xmlns:xlink="http://www.w3.org/1999/xlink" x="0px" y="0px"
	 viewBox="0 0 297 297" style="enable-background:new 0 0 297 297;fill:#64D6C4" xml:space="preserve">
<g>
	<path d="M249.001,0.455c-4.369,0-8.859,0.758-13.35,2.252c-0.209,0.068-0.426,0.149-0.629,0.233
		c-0.387,0.155-39.152,15.603-89.872,15.603c-29.764,0-57.743-5.248-83.161-15.6C57.194,0.99,52.337,0,47.553,0
		C28.422,0,13.996,15.845,13.996,36.856v120.418C13.996,233.014,75.591,297,148.499,297c72.909,0,134.505-63.986,134.505-139.726
		V36.856C283.004,15.765,268.703,0.455,249.001,0.455z M262.152,157.274c0,64.437-52.046,118.874-113.653,118.874
		c-61.605,0-113.651-54.438-113.651-118.874V36.856c0-9.573,5.105-16.005,12.705-16.005c2.075,0,4.286,0.472,6.572,1.403
		c27.927,11.373,58.553,17.14,91.025,17.14c52.892,0,92.842-15.204,97.355-16.992c2.266-0.726,4.449-1.096,6.496-1.096
		c8.111,0,13.151,5.959,13.151,15.55V157.274z"/>
	<path d="M204.886,199.869c-3.442-3.063-8.714-2.754-11.774,0.689c-9.429,10.6-26.522,17.186-44.611,17.186
		c-18.089,0-35.183-6.586-44.611-17.186c-3.06-3.442-8.332-3.75-11.774-0.689c-3.442,3.061-3.751,8.333-0.689,11.775
		c12.687,14.265,34.022,22.781,57.075,22.781c23.053,0,44.39-8.517,57.075-22.781C208.637,208.202,208.328,202.93,204.886,199.869z"
		/>
	<path d="M239.494,121.283c-12.725-6.362-23.531-8.536-32.362-8.536c-18.463,0-28.256,9.506-28.848,10.099
		c-3.313,3.202-3.374,8.336-0.168,11.67c3.205,3.333,8.505,3.434,11.816,0.236c0.559-0.521,14.049-12.573,42.101,1.451
		c4.122,2.059,9.131,0.391,11.19-3.729C245.283,128.354,243.613,123.344,239.494,121.283z"/>
	<path d="M108.319,133.752c3.312,3.197,8.611,3.097,11.816-0.236c3.206-3.334,3.145-8.468-0.168-11.67
		c-0.592-0.593-10.385-10.099-28.848-10.099c-8.831,0-19.637,2.174-32.362,8.536c-4.119,2.061-5.789,7.07-3.729,11.19
		c2.06,4.12,7.068,5.788,11.19,3.729C94.27,121.179,107.761,133.23,108.319,133.752z"/>
</g>

</svg>
