<?xml version="1.0" encoding="iso-8859-1"?>
<!-- Generator: Adobe Illustrator 18.0.0, SVG Export Plug-In . SVG Version: 6.00 Build 0)  -->
<!DOCTYPE svg PUBLIC "-//W3C//DTD SVG 1.1//EN" "http://www.w3.org/Graphics/SVG/1.1/DTD/svg11.dtd">
<svg version="1.1" id="Capa_1" xmlns="http://www.w3.org/2000/svg" xmlns:xlink="http://www.w3.org/1999/xlink" x="0px" y="0px"
	 viewBox="0 0 297 297" style="enable-background:new 0 0 297 297;fill:#64D6C4" xml:space="preserve">
<g>
	<path d="M249.001,0.455c-4.369,0-8.859,0.758-13.35,2.252c-0.209,0.068-0.426,0.149-0.629,0.233
		c-0.387,0.155-39.152,15.603-89.872,15.603c-29.764,0-57.743-5.248-83.161-15.6C57.194,0.99,52.337,0,47.553,0
		C28.422,0,13.996,15.845,13.996,36.856v120.418C13.996,233.014,75.591,297,148.499,297c72.909,0,134.505-63.986,134.505-139.726
		V36.856C283.004,15.765,268.703,0.455,249.001,0.455z M262.152,157.274c0,64.437-52.047,118.874-113.653,118.874
		c-61.605,0-113.651-54.438-113.651-118.874V36.856c0-9.573,5.105-16.005,12.705-16.005c2.075,0,4.287,0.472,6.572,1.403
		c27.927,11.373,58.553,17.14,91.025,17.14c52.892,0,92.842-15.204,97.354-16.992c2.266-0.726,4.45-1.096,6.496-1.096
		c8.111,0,13.151,5.959,13.151,15.55V157.274z"/>
	<path d="M148.5,197.761c-23.053,0-44.389,8.516-57.075,22.781c-3.062,3.442-2.753,8.714,0.689,11.774
		c3.441,3.061,8.714,2.754,11.774-0.689c9.429-10.6,26.522-17.185,44.611-17.185c18.09,0,35.183,6.585,44.611,17.185
		c1.648,1.854,3.936,2.799,6.235,2.799c1.971,0,3.95-0.695,5.539-2.109c3.442-3.061,3.751-8.332,0.689-11.774
		C192.889,206.276,171.553,197.761,148.5,197.761z"/>
	<path d="M119.968,125.986c3.313-3.202,3.374-8.336,0.168-11.67c-3.205-3.333-8.505-3.434-11.816-0.236
		c-0.559,0.521-14.049,12.573-42.1-1.451c-4.122-2.059-9.131-0.391-11.191,3.729c-2.059,4.12-0.39,9.13,3.729,11.19
		c12.726,6.362,23.531,8.536,32.362,8.536C109.583,136.085,119.376,126.579,119.968,125.986z"/>
	<path d="M232.033,113.629c-28.052,14.024-41.542,1.973-42.101,1.451c-3.312-3.197-8.611-3.097-11.816,0.236
		c-3.206,3.334-3.145,8.468,0.168,11.67c0.592,0.593,10.385,10.099,28.848,10.099c8.831,0,19.637-2.174,32.362-8.536
		c4.119-2.061,5.789-7.07,3.73-11.19C241.164,113.238,236.155,111.57,232.033,113.629z"/>
</g>

</svg>
