<svg height="512pt" viewBox="0 0 512 512.0018" width="512pt" xmlns="http://www.w3.org/2000/svg" style="fill:#64D6C4"><path d="m102.402344 486.402344h17.757812c18.609375 16.550781 42.667969 25.667968 67.574219 25.597656h136.53125c24.910156.066406 48.972656-9.046875 67.585937-25.597656h17.75c56.527344-.0625 102.339844-45.871094 102.398438-102.402344v-170.664062c-.058594-56.53125-45.871094-102.339844-102.398438-102.402344h-9.164062c-19.375-21.699219-47.078125-34.113282-76.171875-34.132813-10.621094-.058593-21.152344 1.96875-30.992187 5.972657 6.023437-18.4375 16.453124-35.132813 30.378906-48.640626 3.75-3.691406 5.875-8.726562 5.90625-13.992187-.015625-6.703125-3.359375-12.960937-8.917969-16.703125-5.5625-3.742188-12.617187-4.476562-18.832031-1.96875-43.863282 17.597656-64 57.796875-73.019532 86.410156-12.425781-7.351562-26.617187-11.179687-41.054687-11.078125-29.089844.019531-56.789063 12.433594-76.160156 34.132813h-9.171875c-56.53125.0625-102.339844 45.871094-102.402344 102.402344v170.664062c.0625 56.53125 45.871094 102.339844 102.402344 102.402344zm205.847656-469.128906c.402344-.148438.828125-.21875 1.253906-.207032.808594 0 1.582032.328125 2.144532.90625s.867187 1.359375.84375 2.167969c0 .765625-.332032 1.492187-.914063 1.988281-20.398437 19.417969-33.839844 45.011719-38.246094 72.832032-6.859375 5.457031-12.722656 12.058593-17.332031 19.515624-3.507812-5.722656-7.785156-10.933593-12.714844-15.488281 7.023438-25.402343 24.261719-65.390625 64.964844-81.714843zm-291.183594 196.0625c.058594-45.738282 36.167969-83.296876 81.871094-85.15625-8.902344 15.53125-13.589844 33.121093-13.601562 51.023437 0 4.710937 3.820312 8.53125 8.53125 8.53125 4.714843 0 8.535156-3.820313 8.535156-8.53125-.023438-22.640625 8.960937-44.355469 24.96875-60.363281 16.007812-16.007813 37.726562-24.992188 60.363281-24.972656 13.253906-.097657 26.195313 4.007812 36.964844 11.734374 13.671875 8.558594 22.203125 23.347657 22.769531 39.464844 0 4.714844 3.820312 8.535156 8.53125 8.535156 4.714844 0 8.535156-3.820312 8.535156-8.535156.5625-16.117187 9.089844-30.902344 22.757813-39.464844 10.773437-7.726562 23.71875-11.835937 36.972656-11.734374 22.640625-.019532 44.355469 8.964843 60.363281 24.972656 16.007813 16.007812 24.992188 37.722656 24.972656 60.363281 0 4.710937 3.820313 8.53125 8.53125 8.53125 4.714844 0 8.535157-3.820313 8.535157-8.53125-.007813-17.902344-4.699219-35.492187-13.601563-51.023437 45.699219 1.859374 81.808594 39.417968 81.867188 85.15625v170.664062c-.050782 47.109375-38.226563 85.28125-85.332032 85.335938h-2.140624c4.164062-5.761719 7.707031-11.945313 10.578124-18.449219 1.902344-4.316407-.058593-9.351563-4.371093-11.253907-4.316407-1.898437-9.351563.058594-11.253907 4.375-9 20.300782-25.515624 36.324219-46.078124 44.707032-10.1875 4.125-21.078126 6.238281-32.070313 6.21875h-136.53125c-21.789063.035156-42.761719-8.300782-58.582031-23.285156-8.328125-7.792969-14.984375-17.195313-19.566406-27.640626-1.898438-4.316406-6.9375-6.273437-11.25-4.375-4.316407 1.902344-6.273438 6.9375-4.375 11.253907 2.871093 6.503906 6.417968 12.6875 10.582031 18.449219h-2.140625c-47.109375-.054688-85.28125-38.226563-85.335938-85.335938zm0 0"/><path d="m143.453125 297.320312c.710937 0 1.417969 0 2.136719-.085937l69.871094-5.828125c13.234374-1.167969 23.40625-12.21875 23.472656-25.507812v-22.894532c.039062-11.25-7.304688-21.195312-18.074219-24.464844l-74.5625-22.945312c-8.15625-2.507812-17.027344-.789062-23.65625 4.585938s-10.140625 13.703124-9.367187 22.199218l4.691406 51.660156c1.238281 13.164063 12.269531 23.238282 25.488281 23.28125zm-10.058594-83.882812c1.5-1.238281 3.378907-1.914062 5.324219-1.921875.867188 0 1.730469.132813 2.558594.394531l74.566406 22.9375c3.582031 1.101563 6.023438 4.410156 6.023438 8.15625v22.894532c-.007813 4.441406-3.402344 8.140624-7.824219 8.535156l-69.871094 5.820312c-4.660156.359375-8.753906-3.070312-9.207031-7.722656l-4.695313-51.660156c-.289062-2.847656.886719-5.648438 3.125-7.433594zm0 0"/><path d="m296.542969 291.40625 69.871093 5.828125c.714844.050781 1.425782.085937 2.125.085937 13.226563-.042968 24.257813-10.121093 25.496094-23.289062l4.695313-51.644531c.773437-8.5-2.738281-16.828125-9.367188-22.203125-6.625-5.378906-15.5-7.101563-23.65625-4.589844l-74.574219 22.945312c-10.761718 3.273438-18.105468 13.214844-18.066406 24.464844v22.894532c.070313 13.289062 10.242188 24.339843 23.476563 25.507812zm-6.410157-48.402344c0-3.746094 2.445313-7.054687 6.027344-8.15625l74.5625-22.9375c.828125-.261718 1.691406-.394531 2.558594-.394531 2.394531.015625 4.667969 1.03125 6.273438 2.804687 1.605468 1.769532 2.394531 4.132813 2.175781 6.515626l-4.691407 51.652343c-.425781 4.667969-4.535156 8.121094-9.207031 7.730469l-69.871093-5.820312c-4.425782-.390626-7.816407-4.09375-7.828126-8.53125zm0 0"/><path d="m153.4375 432.640625h.050781l.402344.25c.785156.410156 1.628906.699219 2.5.851563.085937 0 .144531.066406.230469.085937.085937.015625.25 0 .375 0 .34375.0625.6875.105469 1.035156.128906.574219-.019531 1.144531-.09375 1.707031-.222656.132813 0 .28125 0 .417969-.050781.910156-.25 1.773438-.648438 2.558594-1.179688.222656-.144531.410156-.304687.613281-.46875.601563-.496094 1.132813-1.070312 1.578125-1.707031.148438-.179687.289062-.367187.417969-.5625.050781-.085937.128906-.144531.179687-.230469.183594-.433594.328125-.882812.425782-1.339844.222656-.445312.398437-.910156.53125-1.390624l1.707031-10.171876c.726562-4.066406 4.257812-7.027343 8.386719-7.03125h5.292968c4.15625.011719 7.695313 3.019532 8.386719 7.117188l4.609375 27.65625c0 .085938.074219.160156.09375.246094.109375.417968.253906.820312.433594 1.210937.191406.597657.449218 1.167969.761718 1.707031.632813.816407 1.347657 1.566407 2.132813 2.238282.347656.238281.710937.453125 1.089844.640625.570312.296875 1.171875.53125 1.792969.699219.222656.058593.402343.203124.632812.246093 3.363281.582031 6.773438.867188 10.1875.855469h21.25c.316406-.046875.632812-.109375.945312-.191406.578126-.054688 1.152344-.171875 1.707032-.347656 1.007812-.375 1.949218-.90625 2.789062-1.578126.394532-.347656.753906-.730468 1.078125-1.144531.347657-.417969.652344-.871093.910157-1.347656.257812-.507813.460937-1.039063.605468-1.585937.140625-.304688.257813-.613282.351563-.933594l3.335937-19.890625c.714844-4.085938 4.265625-7.066407 8.414063-7.066407h5.289062c4.160157.015626 7.703125 3.027344 8.390625 7.128907l3.335938 19.882812c.097656.363281.226562.71875.375 1.066407.121094.433593.273437.859374.460937 1.269531.527344.894531 1.148438 1.726562 1.859375 2.484375.523438.441406 1.097656.820312 1.707032 1.125.300781.203125.617187.382812.941406.546875.992187.40625 2.054687.621093 3.128906.632812h21.1875c3.417969.011719 6.824219-.273437 10.191406-.855469.230469-.042968.410156-.1875.628906-.246093.625-.164063 1.222657-.398438 1.792969-.699219.378907-.1875.746094-.402344 1.09375-.640625.78125-.671875 1.496094-1.421875 2.132813-2.234375.3125-.542969.566406-1.113281.757812-1.707031.175782-.394531.320313-.800781.4375-1.214844 0-.082031.074219-.160156.09375-.246094l4.605469-27.65625c.667969-4.117187 4.21875-7.152343 8.390625-7.167969h5.289062c4.164063.015626 7.707032 3.027344 8.390626 7.132813l1.707031 10.15625c.367187.890625.683593 1.804687.953125 2.730469 0 .085937.121094.136718.171875.222656.128906.21875.296875.390625.441406.597656.441406.605469.960937 1.15625 1.546875 1.628906.214844.171876.402344.332032.632812.484376.78125.53125 1.644532.929687 2.558594 1.179687l.382813.050781c.890625.261719 1.832031.292969 2.738281.09375h.378906c.125 0 .144532-.070312.230469-.085937.871094-.152344 1.714844-.441407 2.5-.851563l.398437-.25h.050782c52.601562-29.464844 61.203125-72.53125 61.621094-95.570312.175781-7.839844-3.257813-15.324219-9.3125-20.304688-6.054688-4.980468-14.058594-6.910156-21.714844-5.230468l-34.476563 7.585937h-.058593c-2.582032.617187-4.71875 2.421875-5.75 4.867187-.332032.621094-.582032 1.28125-.742188 1.96875v.070313l-4.191406 25.171875c-.679688 4.136719-4.261719 7.167969-8.457032 7.152344h-5.289062c-4.152344-.011719-7.695312-3.015625-8.390625-7.109375l-2.472656-15.019531c0-.074219-.070313-.125-.078125-.203126-.007813-.078124 0-.144531 0-.222656-.15625-.464844-.351563-.917968-.585938-1.347656-.179687-.539062-.40625-1.058594-.683594-1.554688-.339843-.4375-.71875-.839843-1.136718-1.203124-.347656-.402344-.734375-.769532-1.152344-1.101563-.476562-.28125-.984375-.511719-1.507812-.6875-.472657-.246094-.96875-.445313-1.476563-.589844-.566406-.078125-1.136719-.101562-1.707031-.070312-.488282-.058594-.980469-.074219-1.46875-.050781-.085938 0-.136719.070312-.214844.078124-.074219.007813-.144531 0-.21875 0l-8.707031 1.894532c-7.523438 1.695312-15.144531 2.953125-22.816407 3.761718-.171874 0-.308593.121094-.476562.15625-.625.113282-1.234375.304688-1.808594.570313-.445312.15625-.871094.351563-1.28125.578125-.488281.332031-.941406.710938-1.347656 1.136719-.375.328125-.71875.691406-1.023438 1.082031-.304687.457031-.558593.9375-.761718 1.445312-.257813.503907-.464844 1.035157-.613282 1.585938-.070312.167969-.132812.339844-.1875.511719l-2.996093 17.765625c-.6875 4.105468-4.234375 7.117187-8.398438 7.125h-5.289062c-4.160157-.011719-7.707031-3.027344-8.386719-7.132813l-2.996094-17.75c0-.1875-.144531-.324219-.1875-.511719-.152344-.554687-.359375-1.089843-.613281-1.605468-.207031-.492188-.457031-.96875-.753906-1.414063-.316407-.40625-.671875-.78125-1.066407-1.117187-.394531-.414063-.832031-.78125-1.304687-1.101563-.421875-.234375-.859375-.4375-1.3125-.597656-.574219-.253906-1.171875-.445313-1.785156-.5625-.171875 0-.308594-.136719-.476563-.15625-7.703125-.8125-15.351562-2.074219-22.90625-3.777344l-8.617187-1.878906c-.078125 0-.144531 0-.222657 0-.074218 0-.128906-.058594-.210937-.078125-1.054687.042969-2.105469.085938-3.160156.121094-.617188.167968-1.210938.40625-1.773438.707031-.410156.148437-.808593.332031-1.1875.546875-.527343.390625-1.003906.84375-1.425781 1.347656-.304688.296875-.589844.617188-.851562.957032-.3125.539062-.5625 1.113281-.75 1.707031-.214844.394531-.394532.808593-.539063 1.238281v.210938c-.019531.074218-.046875.144531-.078125.214843l-2.472656 15.007813c-.703125 4.105468-4.265625 7.101562-8.429688 7.09375h-5.292968c-4.15625-.015625-7.699219-3.019532-8.386719-7.117188l-4.191407-25.175781v-.066406c-.179687-.769531-.464843-1.511719-.851562-2.203125-.109375-.3125-.230469-.621094-.367188-.921875 0-.050781-.09375-.082031-.128906-.132813-.570312-.867187-1.289062-1.621094-2.125-2.230468-.085937-.058594-.203125-.074219-.289062-.136719-.835938-.566407-1.765625-.976563-2.75-1.210938h-.066406l-34.457032-7.585937c-7.65625-1.691406-15.660156.21875-21.730468 5.179687-6.070313 4.960938-9.527344 12.429688-9.390626 20.265625.417969 23.042969 9.019532 66.136719 61.617188 95.574219zm-41.472656-102.65625c2.035156-1.667969 4.726562-2.296875 7.289062-1.707031l28.835938 6.351562 3.242187 19.480469c2.027344 12.34375 12.714844 21.394531 25.222657 21.359375h5.292968c12.519532.027344 23.210938-9.035156 25.230469-21.394531l1.015625-6.160157c5.761719 1.304688 11.863281 2.3125 18.089844 3.15625l1.949218 11.546876c2.015626 12.355468 12.703126 21.417968 25.222657 21.382812h5.289062c12.503907.035156 23.183594-9 25.226563-21.332031l1.945312-11.5625c6.253906-.851563 12.375-1.859375 18.097656-3.15625l1.015626 6.167969c2.03125 12.34375 12.71875 21.386718 25.226562 21.351562h5.289062c12.519532.03125 23.210938-9.03125 25.226563-21.386719l3.242187-19.480469 28.851563-6.355468c2.554687-.578125 5.238281.050781 7.269531 1.707031 2.035156 1.640625 3.175782 4.144531 3.082032 6.757813-.601563 30.683593-16.816407 58.941406-43.007813 74.9375-2.878906-11.261719-13.039063-19.136719-24.664063-19.113282h-5.289062c-12.515625-.035156-23.207031 9.023438-25.226562 21.375l-3.53125 21.171875c-.453126 0-.914063.121094-1.367188.121094h-14.027344l-2.132812-12.75c-2.015625-12.355469-12.707032-21.417969-25.226563-21.386719h-5.289062c-12.515625-.03125-23.203125 9.027344-25.222657 21.378906l-2.136718 12.757813h-14.027344c-.453125 0-.914062-.105469-1.363281-.121094l-3.535157-21.164062c-2.015624-12.355469-12.707031-21.417969-25.222656-21.382813h-5.292968c-11.621094-.015625-21.777344 7.855469-24.660157 19.113282-26.195312-16-42.417969-44.257813-43.035156-74.949219-.074219-2.601563 1.074219-5.085938 3.105469-6.714844zm0 0"/></svg>
