<svg height="512" viewBox="0 0 60 60" width="512" xmlns="http://www.w3.org/2000/svg" style="fill:#64D6C4"><g id="016---Cowboy-Hat"><path id="Shape" d="m53.87 14.69c-.6196415-.2993503-1.3496617-.2591127-1.9326501.1065246s-.9370537 1.0053141-.9373499 1.6934754v5c.0134966 1.5124376-1.1009988 2.7983938-2.6 3l-1.72.24-5.78-22c-.7068674-2.08803545-2.9698468-3.21058054-5.06-2.51-3.7354927 1.2709035-7.7836254 1.28845828-11.53.05-1.0289265-.3890525-2.1726616-.33719959-3.162163.14336128-.9895013.48056088-1.7374254 1.34741053-2.067837 2.39663872l-5.76 21.92-1.73-.24c-1.4950254-.2061878-2.60415132-1.4908896-2.59-3v-5c-.00029619-.6881613-.35436152-1.3278381-.93734992-1.6934754s-1.31300862-.4058749-1.93265008-.1065246c-3.70310981 1.6198433-6.10529113 5.2681806-6.13 9.31 0 5.57 2.42 9.67 12.25 11.66-.19 9.53 3.19 17.59 12.48 19.75-1.3576122.7651657-2.5559136 1.7835522-3.53 3-.221384.3029381-.2545589.7043116-.0859174 1.0394867.1686416.3351751.5107179.547743.8859174.5505133.3147573 0 .6111456-.1481942.8-.4 1.7809771-2.1666251 4.3981137-3.4751934 7.2-3.6 2.8018863.1248066 5.4190229 1.4333749 7.2 3.6.1888544.2518058.4852427.4.8.4.3787721 0 .7250352-.2140024.8944272-.5527864s.132836-.744196-.0944272-1.0472136c-.9740864-1.2164478-2.1723878-2.2348343-3.53-3 9.29-2.16 12.67-10.21 12.48-19.75 9.83-1.97 12.25-6.07 12.25-11.65-.0247089-4.0418194-2.4268902-7.6901567-6.13-9.31zm-32.87-11.31c.3513484-1.04601596 1.4834801-1.60984438 2.53-1.26 4.1542076 1.38538825 8.6457924 1.38538825 12.8 0 .5116206-.21546461 1.0897792-.20858743 1.5961299.01898592s.8953336.6553665 1.0738701 1.18101408l5.68 21.68c-9.7480166 1.2300499-19.6119834 1.2300499-29.36 0zm5.11 49.23c-.3921222-.3921222-.3921222-1.0278778 0-1.42s1.0278778-.3921222 1.42 0c.7635096.7556092 1.252732 1.7446129 1.39 2.81h-.5c-.8742565-.262568-1.6685581-.7405243-2.31-1.39zm5 1.34c.1319748-1.066981.6220116-2.0576307 1.39-2.81.422541-.3101077.997459-.3101077 1.42 0 .3200717.4192246.3200717 1.0007754 0 1.42-.7406567.8085983-1.7500026 1.3203792-2.84 1.44zm4.74-.75c.61024-1.3008992.2123554-2.8518263-.9487815-3.6982854-1.1611369-.846459-2.759424-.7507244-3.8112185.2282854-.4176003.4180875-.7835472.8847537-1.09 1.39-.283706-.4816404-.6190157-.9309553-1-1.34-1.0421993-.9741008-2.6262147-1.0795689-3.7883582-.2522392-1.1621434.8273297-1.5809571 2.3586113-1.0016418 3.6622392-7.55-2.3-10-9.3-9.9-17.16 10.4582006 1.3249808 21.0417994 1.3249808 31.5002705 0 .0297295 7.89-2.4302705 14.88-9.9902705 17.17zm-5.85-18.2c-25.84 0-28-5.42-28-11 .03786834-3.2733469 1.996202-6.2186808 5-7.52v5c.00177027 2.4973045 1.84589761 4.6103671 4.32 4.95 6.1796358.9716537 12.4244744 1.4697698 18.68 1.49 6.2520533.0155896 12.4953239-.4692922 18.67-1.45 2.4780723-.3350825 4.3275459-2.4493768 4.33-4.95v-5c2.9941065 1.2913192 4.951552 4.2196577 5 7.48 0 5.58-2.16 11-28 11z"/><path id="Shape" d="m33.75 24.82c.3507538.2564091.8269414.2569921 1.1783219.0014426.3513806-.2555495.4975432-.7087508.3616781-1.1214426l-1.43-4.35 3.76-3c.3068775-.2699639.4185775-.6995087.2820858-1.0847676-.1364917-.3852588-.4936984-.6486766-.9020858-.6652324h-4.63l-1.37-3.93c-.1435417-.3954845-.5192718-.6588256-.94-.6588256s-.7964583.2633411-.94.6588256l-1.45 3.93h-4.67c-.426828.0013234-.8057653.2734143-.9434462.6774289-.137681.4040146-.0037516.8508813.3334462 1.1125711l3.76 3-1.39 4.31c-.1303481.4094648.0154677.8564254.3622053 1.1102464.3467376.2538209.8168659.2577475 1.1677947.0097536l3.71-2.67zm-6.13-3.41.69-2.1c.1324997-.399576.0005691-.8393447-.33-1.1l-2.05-1.61h2.45c.4210301-.0001791.7968498-.2640526.94-.66l.7-2 .71 2c.1431502.3959474.5189699.6598209.94.66h2.45l-2 1.61c-.3305691.2606553-.4624997.700424-.33 1.1l.69 2.1c-2.85-2-2.08-2-4.86 0z"/><path id="Shape" d="m23 31c-10.32 0-14.23-3.63-14.3-3.7-.25365857-.2518722-.62242099-.3492866-.96737804-.2555479-.34495704.0937386-.61370152.3643891-.705.71-.09129847.3456109.00871947.7136757.26237804.9655479.18.18 4.43 4.28 15.71 4.28.5522847 0 1-.4477153 1-1s-.4477153-1-1-1z"/><circle id="Oval" cx="5" cy="26.01" r="1"/><path id="Shape" d="m23 10c-.0359131-1.03877416.3211718-2.05289527 1-2.84.5269004-.33296613 1.1816943-.39249285 1.76-.16.2628284.07236098.5438061.03428502.7778976-.10541476.2340916-.13969978.4010036-.36891287.4621024-.63458524.0783346-.26837552.0407457-.55728884-.1036525-.7966858-.1443982-.23939697-.3824186-.40741507-.6563475-.4633142-1.1721528-.3666061-2.4487369-.15507907-3.44.57-1.75 1.43-1.8 4.14-1.8 4.43 0 .5522847.4477153 1 1 1s1-.4477153 1-1z"/></g></svg>
